<svg width="961" height="190" viewBox="0 0 961 190" fill="none" xmlns="http://www.w3.org/2000/svg">
<path d="M430.516 0.459961H404.596V91H430.516V56.8H455.176L516.376 127H548.416L478.036 45.82L517.276 0.459961H485.056L455.176 34.66H430.516V0.459961Z" fill="white"/>
<path d="M608.037 34.66V24.76H548.817V66.7H633.957V91H537.297C535.617 91 533.877 90.58 532.077 89.74C530.397 88.9 528.837 87.82 527.397 86.5C526.077 85.06 524.997 83.5 524.157 81.82C523.317 80.02 522.897 78.22 522.897 76.42V15.04C522.897 13.24 523.317 11.5 524.157 9.81996C524.997 8.01996 526.077 6.45996 527.397 5.13996C528.837 3.69996 530.397 2.55996 532.077 1.71996C533.877 0.879963 535.617 0.459961 537.297 0.459961H619.557C621.237 0.459961 622.917 0.879963 624.597 1.71996C626.397 2.55996 627.957 3.69996 629.277 5.13996C630.717 6.45996 631.857 8.01996 632.697 9.81996C633.537 11.5 633.957 13.24 633.957 15.04V42.22C633.957 44.02 633.537 45.82 632.697 47.62C631.857 49.3 630.717 50.86 629.277 52.3C627.957 53.62 626.397 54.7 624.597 55.54C622.917 56.38 621.237 56.8 619.557 56.8H558.717V34.66H608.037Z" fill="white"/>
<path d="M671.336 34.66V0.459961H645.416V42.22C645.416 44.02 645.836 45.82 646.676 47.62C647.516 49.3 648.596 50.86 649.916 52.3C651.356 53.62 652.916 54.7 654.596 55.54C656.396 56.38 658.136 56.8 659.816 56.8H728.576V66.7H645.416V91H740.096C741.776 91 743.456 90.58 745.136 89.74C746.936 88.9 748.496 87.82 749.816 86.5C751.256 85.06 752.396 83.5 753.236 81.82C754.076 80.02 754.496 78.22 754.496 76.42V0.459961H728.576V34.66H671.336Z" fill="white"/>
<path d="M860.322 56.8V66.7H766.002V91H871.842C873.522 91 875.202 90.58 876.882 89.74C878.682 88.9 880.242 87.82 881.562 86.5C883.002 85.06 884.142 83.5 884.982 81.82C885.822 80.02 886.242 78.22 886.242 76.42V49.24C886.242 47.44 885.822 45.7 884.982 44.02C884.142 42.22 883.002 40.66 881.562 39.34C880.242 37.9 878.682 36.76 876.882 35.92C875.202 35.08 873.522 34.66 871.842 34.66H802.182V24.76H886.242V0.459961H790.662C788.982 0.459961 787.242 0.879963 785.442 1.71996C783.762 2.55996 782.202 3.69996 780.762 5.13996C779.442 6.45996 778.362 8.01996 777.522 9.81996C776.682 11.5 776.262 13.24 776.262 15.04V42.22C776.262 44.02 776.682 45.82 777.522 47.62C778.362 49.3 779.442 50.86 780.762 52.3C782.202 53.62 783.762 54.7 785.442 55.54C787.242 56.38 788.982 56.8 790.662 56.8H860.322Z" fill="white"/>
<path d="M68.7 0.639961C70.74 0.879965 73.32 2.13996 76.44 4.41996C79.68 6.57996 83.82 9.93996 88.86 14.5C93.9 18.94 100.08 24.7 107.4 31.78C114.84 38.74 123.78 47.14 134.22 56.98V0.459961H160.14V79.66C160.14 81.1 159.72 82.48 158.88 83.8C158.16 85.12 157.14 86.32 155.82 87.4C154.5 88.48 152.94 89.38 151.14 90.1C149.34 90.7 147.48 91 145.56 91H140.52C140.04 91 139.74 90.94 139.62 90.82C137.7 90.58 135.06 89.32 131.7 87.04C128.46 84.76 124.2 81.34 118.92 76.78C113.76 72.22 107.46 66.46 100.02 59.5C92.7 52.42 84 44.02 73.92 34.3V91H48V11.8C48 10.48 48.36 9.15996 49.08 7.83996C49.92 6.39996 51 5.13996 52.32 4.05996C53.64 2.97996 55.2 2.13996 57 1.53996C58.8 0.819961 60.72 0.459961 62.76 0.459961H67.62C68.22 0.459961 68.58 0.519963 68.7 0.639961Z" fill="url(#paint0_linear)"/>
<path d="M197.494 91V56.8H272.914V34.66H197.494V24.76H273.094V0.459961H185.974C184.294 0.459961 182.554 0.879963 180.754 1.71996C179.074 2.55996 177.514 3.69996 176.074 5.13996C174.754 6.45996 173.674 8.01996 172.834 9.81996C171.994 11.5 171.574 13.24 171.574 15.04V91H197.494Z" fill="url(#paint1_linear)"/>
<path d="M284.602 24.76H326.002V91H351.922V24.76H393.322V0.459961H284.602V24.76Z" fill="url(#paint2_linear)"/>
<g filter="url(#filter0_d)">
<path d="M41.1167 118H956.317L919.2 181.467H4.00003L41.1167 118Z" fill="url(#paint3_linear)"/>
</g>
<path d="M259.775 160.467H263.512V151.624H270.468C275.833 151.624 279.903 148.183 279.903 143.336C279.903 138.489 275.833 135.048 270.468 135.048H259.775V160.467ZM263.512 148.146V138.526H269.95C273.613 138.526 276.092 140.339 276.092 143.336C276.092 146.333 273.613 148.146 269.95 148.146H263.512Z" fill="white"/>
<path d="M303.413 160.911C310.554 160.911 316.548 154.88 316.548 147.739C316.548 140.598 310.554 134.604 303.413 134.604C296.272 134.604 290.204 140.598 290.204 147.739C290.204 154.88 296.272 160.911 303.413 160.911ZM303.413 157.47C298.344 157.47 294.052 153.03 294.052 147.739C294.052 142.485 298.344 138.045 303.413 138.045C308.482 138.045 312.737 142.485 312.737 147.739C312.737 153.03 308.482 157.47 303.413 157.47Z" fill="white"/>
<path d="M334.352 160.467H338.089L344.86 140.228L351.557 160.467H355.294L363.656 135.048H359.512L353.259 154.436L346.895 135.048H342.751L336.387 154.436L330.134 135.048H325.99L334.352 160.467Z" fill="white"/>
<path d="M393.666 138.526V135.048H374.981V160.467H393.666V156.989H378.755V149.256H392.223V145.778H378.755V138.526H393.666Z" fill="white"/>
<path d="M425.887 143.336C425.887 138.489 421.817 135.048 416.452 135.048H405.759V160.467H409.496V151.624H415.342L421.558 160.467H425.85L419.375 151.254C423.223 150.255 425.887 147.258 425.887 143.336ZM409.496 138.526H415.934C419.597 138.526 422.076 140.339 422.076 143.336C422.076 146.333 419.597 148.146 415.934 148.146H409.496V138.526Z" fill="white"/>
<path d="M456.233 138.526V135.048H437.548V160.467H456.233V156.989H441.322V149.256H454.79V145.778H441.322V138.526H456.233Z" fill="white"/>
<path d="M468.77 160.467H477.539C485.753 160.467 491.599 155.176 491.599 147.739C491.599 140.302 485.753 135.048 477.539 135.048H468.77V160.467ZM472.507 157.063V138.452H477.761C483.644 138.452 487.751 142.3 487.751 147.739C487.751 153.215 483.644 157.063 477.761 157.063H472.507Z" fill="white"/>
<path d="M522.341 160.467H534.884C539.435 160.467 542.691 157.618 542.691 153.548C542.691 150.736 540.989 148.442 538.029 146.999C540.323 145.704 541.655 144.039 541.655 141.375C541.655 137.675 538.658 135.048 534.403 135.048H522.341V160.467ZM526.078 145.63V138.341H533.478C536.031 138.341 537.844 139.895 537.844 142.004C537.844 144.113 536.031 145.63 533.478 145.63H526.078ZM526.078 157.174V148.812H534.033C536.882 148.812 538.88 150.551 538.88 152.993C538.88 155.435 536.882 157.174 534.033 157.174H526.078Z" fill="white"/>
<path d="M562.651 160.467H566.499V150.514L576.6 135.048H572.271L564.575 146.962L556.99 135.048H552.476L562.651 150.514V160.467Z" fill="white"/>
<path d="M608.711 156.989V135.048H604.937V160.467H622.179V156.989H608.711Z" fill="white"/>
<path d="M633.555 160.467H637.292V135.048H633.555V160.467Z" fill="white"/>
<path d="M659.379 160.874C665.373 160.874 668.629 157.618 668.629 153.326C668.629 148.775 665.114 147.073 660.045 145.889C655.864 144.89 653.681 144.076 653.681 141.708C653.681 139.673 655.679 137.86 658.528 137.86C661.118 137.86 663.671 139.007 665.817 140.968L667.963 138.156C665.521 136.01 662.598 134.567 658.676 134.567C653.57 134.567 649.87 137.786 649.87 142.041C649.87 146.629 653.311 148.183 658.491 149.404C662.746 150.366 664.855 151.291 664.855 153.696C664.855 155.731 663.042 157.581 659.527 157.581C656.086 157.581 653.422 156.175 651.165 154.029L648.908 156.804C651.609 159.394 655.124 160.874 659.379 160.874Z" fill="white"/>
<path d="M681.028 160.467H684.765V153.03L688.465 149.071L697.53 160.467H702.229L691.092 146.481L701.526 135.048H696.753L684.765 148.294V135.048H681.028V160.467Z" fill="white"/>
<defs>
<filter id="filter0_d" x="0" y="118" width="960.317" height="71.4667" filterUnits="userSpaceOnUse" color-interpolation-filters="sRGB">
<feFlood flood-opacity="0" result="BackgroundImageFix"/>
<feColorMatrix in="SourceAlpha" type="matrix" values="0 0 0 0 0 0 0 0 0 0 0 0 0 0 0 0 0 0 127 0"/>
<feOffset dy="4"/>
<feGaussianBlur stdDeviation="2"/>
<feColorMatrix type="matrix" values="0 0 0 0 0 0 0 0 0 0 0 0 0 0 0 0 0 0 1 0"/>
<feBlend mode="normal" in2="BackgroundImageFix" result="effect1_dropShadow"/>
<feBlend mode="normal" in="SourceGraphic" in2="effect1_dropShadow" result="shape"/>
</filter>
<linearGradient id="paint0_linear" x1="355.184" y1="6.13439" x2="313.678" y2="144.069" gradientUnits="userSpaceOnUse">
<stop stop-color="#FE7E00"/>
<stop offset="1" stop-color="#FF3B00"/>
</linearGradient>
<linearGradient id="paint1_linear" x1="355.184" y1="6.13439" x2="313.678" y2="144.069" gradientUnits="userSpaceOnUse">
<stop stop-color="#FE7E00"/>
<stop offset="1" stop-color="#FF3B00"/>
</linearGradient>
<linearGradient id="paint2_linear" x1="355.184" y1="6.13439" x2="313.678" y2="144.069" gradientUnits="userSpaceOnUse">
<stop stop-color="#FE7E00"/>
<stop offset="1" stop-color="#FF3B00"/>
</linearGradient>
<linearGradient id="paint3_linear" x1="852.915" y1="121.978" x2="843.747" y2="231.804" gradientUnits="userSpaceOnUse">
<stop stop-color="#FE7E00"/>
<stop offset="1" stop-color="#FF3B00"/>
</linearGradient>
</defs>
</svg>
